<?xml version="1.0" standalone="no"?>
<!DOCTYPE svg PUBLIC "-//W3C//DTD SVG 20010904//EN"
 "http://www.w3.org/TR/2001/REC-SVG-20010904/DTD/svg10.dtd">
<svg version="1.0" xmlns="http://www.w3.org/2000/svg"
 width="500.000000pt" height="500.000000pt" viewBox="0 0 500.000000 500.000000"
 preserveAspectRatio="xMidYMid meet">
<metadata>
Created by potrace 1.16, written by Peter Selinger 2001-2019
</metadata>
<g transform="translate(0.000000,500.000000) scale(0.100000,-0.100000)"
fill="#000000" stroke="none">
<path d="M3255 4381 c-55 -25 -92 -63 -118 -119 -21 -45 -22 -61 -25 -414 l-3
-368 75 0 75 0 3 361 3 361 28 24 28 24 322 0 c397 0 370 10 377 -142 l5 -103
73 -3 72 -3 0 93 c0 51 -5 113 -11 137 -13 60 -59 114 -121 145 l-52 26 -345
0 c-315 0 -350 -2 -386 -19z"/>
<path d="M806 4319 c-3 -13 -15 -114 -26 -224 -12 -110 -24 -210 -27 -222 l-5
-23 756 0 756 0 0 -250 c0 -235 1 -250 18 -250 16 0 21 21 41 193 12 105 34
284 47 396 13 112 22 206 19 209 -5 6 -194 30 -480 62 -99 11 -272 31 -385 45
-113 14 -304 36 -425 50 -121 14 -234 28 -252 31 -28 5 -33 3 -37 -17z m248
-134 c205 -25 497 -59 986 -116 151 -17 281 -33 288 -35 9 -3 11 -19 6 -61 -4
-32 -9 -61 -13 -64 -3 -3 -112 7 -241 22 -388 47 -831 99 -890 105 -30 3 -122
14 -204 25 -81 10 -155 19 -163 19 -11 0 -12 11 -8 53 8 67 12 77 26 77 6 0
102 -11 213 -25z"/>
<path d="M4054 3837 c-71 -107 -96 -162 -96 -213 0 -113 130 -180 221 -115 37
26 61 74 61 120 0 34 -77 189 -118 238 l-27 33 -41 -63z m105 -123 c96 -68 20
-217 -94 -186 -36 10 -75 64 -75 104 0 46 57 98 107 98 21 0 49 -7 62 -16z"/>
<path d="M4073 3713 c-29 -6 -63 -49 -63 -80 0 -31 25 -79 45 -87 9 -3 32 -6
50 -6 38 0 85 46 85 83 0 29 -36 87 -54 87 -8 0 -20 2 -28 4 -7 2 -23 1 -35
-1z"/>
<path d="M640 3425 l0 -405 795 0 795 0 0 305 0 305 -760 0 -760 0 0 65 0 65
760 0 760 0 0 35 0 35 -795 0 -795 0 0 -405z"/>
<path d="M3407 3522 c-114 -114 -126 -130 -112 -142 14 -12 32 2 145 116 71
71 130 135 130 142 0 34 -47 0 -163 -116z"/>
<path d="M3135 3386 c-110 -49 -134 -175 -50 -256 34 -33 40 -35 106 -35 70 0
71 0 110 42 36 39 39 46 39 102 0 54 -4 64 -32 97 -53 60 -112 77 -173 50z"/>
<path d="M4007 3359 c-92 -49 -122 -174 -62 -261 37 -52 84 -77 146 -78 121
-1 202 91 186 211 -15 116 -162 185 -270 128z m166 -38 c34 -19 67 -78 67
-119 0 -47 -27 -98 -63 -121 -54 -33 -90 -36 -141 -12 -60 30 -80 62 -80 133
-1 52 3 61 34 93 54 56 116 65 183 26z"/>
<path d="M4034 3311 c-47 -29 -64 -59 -64 -114 0 -42 5 -54 33 -82 61 -61 160
-53 200 15 67 113 -59 248 -169 181z"/>
<path d="M3060 3069 l0 -49 130 0 130 0 0 49 0 50 -42 -24 c-28 -16 -59 -25
-88 -25 -29 0 -60 9 -87 25 l-43 24 0 -50z"/>
<path d="M3032 2968 l3 -33 155 0 155 0 3 33 3 32 -161 0 -161 0 3 -32z"/>
<path d="M2810 2860 l0 -50 845 0 845 0 0 50 0 50 -845 0 -845 0 0 -50z"/>
<path d="M1383 2188 c-44 -46 -56 -82 -42 -123 11 -30 9 -40 -23 -107 -42 -88
-111 -182 -175 -237 -40 -34 -49 -38 -70 -28 -20 9 -28 6 -58 -23 -38 -37 -61
-91 -48 -113 33 -58 410 -331 472 -343 29 -6 37 -2 82 46 50 53 63 95 34 106
-8 4 -15 11 -15 18 0 10 57 136 65 145 3 2 22 -11 43 -30 21 -19 54 -46 73
-61 19 -14 90 -72 159 -129 69 -56 139 -114 157 -128 160 -130 296 -231 313
-231 20 0 62 45 87 93 15 30 15 31 -18 58 -53 44 -264 184 -540 359 -57 36
-124 80 -151 98 -26 17 -52 32 -58 32 -21 0 -8 19 51 79 53 54 65 61 88 56 24
-5 34 1 70 40 23 25 47 57 53 71 12 25 10 29 -32 66 -47 41 -75 61 -230 167
-119 80 -210 137 -236 145 -14 4 -29 -3 -51 -26z"/>
<path d="M3259 1875 c-53 -17 -146 -95 -155 -130 -5 -21 -12 -23 -92 -27 -72
-3 -94 -9 -128 -30 -78 -50 -134 -146 -134 -232 0 -134 102 -250 240 -271 31
-5 56 -17 80 -41 66 -63 179 -96 255 -75 21 6 41 8 43 6 9 -9 -28 -139 -45
-157 -15 -17 -15 -18 18 -12 88 16 187 80 229 150 35 56 59 47 99 -38 41 -88
114 -162 204 -206 35 -17 72 -41 83 -53 41 -46 182 -99 262 -99 l44 0 -35 39
c-34 38 -62 81 -55 85 2 1 21 8 43 15 162 56 275 221 275 402 0 206 -118 363
-320 425 -53 16 -160 18 -211 4 -34 -10 -37 -8 -95 48 -78 76 -136 102 -231
107 -63 2 -79 7 -101 28 -70 65 -184 91 -273 62z m1044 -507 c8 -12 7 -21 -2
-32 -11 -13 -40 -16 -182 -16 l-169 0 6 28 c4 15 9 30 11 35 3 4 77 6 165 5
137 -3 162 -5 171 -20z m-3 -143 c7 -8 10 -22 6 -30 -5 -13 -38 -15 -228 -15
l-222 0 29 30 29 30 187 0 c153 0 189 -3 199 -15z m-4 -139 c15 -12 17 -18 8
-33 -10 -16 -32 -18 -254 -21 -235 -2 -270 1 -270 29 0 4 7 15 16 23 22 23
470 24 500 2z"/>
<path d="M988 1080 c-184 -17 -218 -36 -218 -125 0 -48 -3 -55 -20 -55 -34 0
-71 -23 -87 -54 -17 -33 -29 -141 -20 -178 l6 -23 483 8 c266 5 487 13 492 17
5 5 9 40 9 77 1 88 -28 148 -75 161 -30 7 -33 13 -43 63 -14 70 -20 78 -64 96
-44 19 -316 26 -463 13z"/>
</g>
</svg>
